<svg xmlns="http://www.w3.org/2000/svg" width="70" height="65.79" viewBox="0 0 70 65.79"><defs><style>.a{fill:#fff;}.b,.d{fill:none;}.b{stroke:#fff;stroke-width:2px;}.c{stroke:none;}</style></defs><g transform="translate(-925 -1809)"><g transform="translate(925 1751.762)"><path class="a" d="M66.97,87.428H62.585c-.738-6.862-4.666-14.4-11.407-14.4H17.743c-3.339,0-6.383,1.976-8.57,5.564a21.51,21.51,0,0,0-2.837,8.836H3.03A3.032,3.032,0,0,0,0,90.456v3.525a3.032,3.032,0,0,0,3.03,3.028h.737a10.745,10.745,0,0,0-1.01,4.555v8.691a2.678,2.678,0,0,0-1.2,2.232v1.862a2.682,2.682,0,0,0,2.481,2.67v2.956a3.058,3.058,0,0,0,3.055,3.053h8.982a3.058,3.058,0,0,0,3.055-3.053v-2.946h7.078a2.668,2.668,0,0,0,1.766.669H40.947a2.668,2.668,0,0,0,1.766-.669h7.078v2.946a3.058,3.058,0,0,0,3.055,3.053h8.982a3.058,3.058,0,0,0,3.055-3.053v-2.956a2.682,2.682,0,0,0,2.481-2.67v-1.862a2.678,2.678,0,0,0-1.2-2.232v-3.428a1.025,1.025,0,0,0-2.051,0v2.98h-21.4a2.694,2.694,0,0,0-1.766-.669H27.974a2.7,2.7,0,0,0-1.766.669H4.808v-8.243a8.8,8.8,0,0,1,8.774-8.769h4.37l4.037,6.582a6.29,6.29,0,0,0,5.328,2.981H41.6a6.29,6.29,0,0,0,5.328-2.981l4.037-6.582h4.37a8.8,8.8,0,0,1,8.774,8.769v.481a1.025,1.025,0,0,0,2.051,0,11.1,11.1,0,0,0-1.01-5.036H66.97A3.032,3.032,0,0,0,70,93.981V90.456A3.032,3.032,0,0,0,66.97,87.428ZM3.03,94.959a.98.98,0,0,1-.979-.978V90.456a.98.98,0,0,1,.979-.978H6.2c-.007.249-.011.5-.011.751v3.449a10.9,10.9,0,0,0-1.166,1.282Zm14.049,25.015a1,1,0,0,1-1,1H7.093a1,1,0,0,1-1-1v-2.946H17.079Zm45.754,0a1,1,0,0,1-1,1H52.847a1,1,0,0,1-1-1v-2.946H62.833Zm1.85-8.118a.6.6,0,0,1,.105.011l.043.009a.639.639,0,0,1,.483.61v1.862a.639.639,0,0,1-.631.63H43.629v-3.122Zm-23.736-.669a.641.641,0,0,1,.631.63v3.2a.642.642,0,0,1-.631.63H27.974a.642.642,0,0,1-.631-.63v-3.2a.641.641,0,0,1,.631-.63H40.947Zm-15.654.669v3.122H4.238a.639.639,0,0,1-.631-.63v-1.862a.639.639,0,0,1,.482-.61l.043-.01a.6.6,0,0,1,.105-.011H25.293ZM11.685,90.914v-.685a17.11,17.11,0,0,1,2.186-8.776c1.15-1.887,2.526-2.926,3.872-2.926H32.607a1.025,1.025,0,1,0,0-2.049H17.743c-2.09,0-4.087,1.388-5.624,3.91a19.17,19.17,0,0,0-2.485,9.842v1.265a10.77,10.77,0,0,0-1.4.67V90.228a20.708,20.708,0,0,1,2.69-10.57c1.8-2.954,4.222-4.581,6.819-4.581H51.178c2.6,0,5.018,1.627,6.819,4.58a20.664,20.664,0,0,1,2.69,10.57v1.935a10.777,10.777,0,0,0-1.4-.67V90.228A19.168,19.168,0,0,0,56.8,80.386c-1.537-2.521-3.534-3.91-5.624-3.91H37.393a1.025,1.025,0,1,0,0,2.049H51.178c1.347,0,2.722,1.039,3.872,2.926a17.109,17.109,0,0,1,2.186,8.776v.685a11.178,11.178,0,0,0-1.815-.167,8.624,8.624,0,0,0-17.248,0H13.583a11.284,11.284,0,0,0-1.9.168Zm33.5,7.393a4.225,4.225,0,0,1-3.579,2H27.317a4.225,4.225,0,0,1-3.579-2L20.358,92.8H48.564Zm-1.554-7.56a3.168,3.168,0,0,1,6.337,0Zm8.388,0a5.219,5.219,0,0,0-10.439,0H40.225a6.573,6.573,0,0,1,13.147,0Zm15.932,3.235a.98.98,0,0,1-.979.978H63.9a10.915,10.915,0,0,0-1.166-1.282V90.228c0-.249,0-.5-.011-.751H66.97a.98.98,0,0,1,.979.978v3.525Z" transform="translate(0)"/><path class="a" d="M186.286,300.85a1.035,1.035,0,0,0,0,2.069h16.36a1.035,1.035,0,1,0,0-2.069Z" transform="translate(-160.003 -196.707)"/><path class="a" d="M380.188,245.381a5.067,5.067,0,1,0,5.067,5.067A5.073,5.073,0,0,0,380.188,245.381Zm0,8.065a3,3,0,1,1,3-3A3,3,0,0,1,380.188,253.446Z" transform="translate(-324.001 -148.86)"/><path class="a" d="M55.521,250.448a5.067,5.067,0,1,0,5.067-5.067A5.073,5.073,0,0,0,55.521,250.448Zm8.065,0a3,3,0,1,1-3-3A3,3,0,0,1,63.586,250.448Z" transform="translate(-47.863 -148.86)"/></g><g transform="translate(2)"><g class="b" transform="translate(940 1809)"><rect class="c" width="36" height="13" rx="1"/><rect class="d" x="1" y="1" width="34" height="11"/></g><path class="a" d="M1.723-3.246h.949q1.063,0,1.063-.824a.7.7,0,0,0-.223-.607,1.3,1.3,0,0,0-.734-.158H1.723ZM.742,0V-5.687H2.793a4.073,4.073,0,0,1,.811.07,1.912,1.912,0,0,1,.619.24,1.058,1.058,0,0,1,.418.484,1.9,1.9,0,0,1,.141.775,1.352,1.352,0,0,1-.285.85,1.437,1.437,0,0,1-.859.5,1.7,1.7,0,0,1,.754.891L5.16,0H4.086L3.434-1.691a1.33,1.33,0,0,0-.348-.566.9.9,0,0,0-.566-.148H1.734V0ZM6.164,0V-5.687h3.59v.852h-2.6v1.52H9.613v.855H7.168V-.852h2.7V0Zm4.879,0V-5.687h1.051Q14.8-1.758,14.98-1.5V-5.687h.945V0H14.871q-2.621-3.785-2.91-4.2V0Zm7.422,0V-4.836H16.711v-.852h4.527v.852H19.457V0Z" transform="translate(947.258 1818.688)"/></g><g transform="translate(1.022)"><path class="b" d="M1605.978,3.826v5.2" transform="translate(-650 1817)"/><path class="b" d="M1605.978,3.826v5.2" transform="translate(-643 1817)"/></g></g></svg>