<svg xmlns="http://www.w3.org/2000/svg" width="76.675" height="66.714" viewBox="0 0 76.675 66.714"><defs><style>.a{fill:#fff;}</style></defs><g transform="translate(-8.997 -41)"><path class="a" d="M66.884,203h-.031a4.151,4.151,0,0,0-4.144,4.184,4.221,4.221,0,0,0,4.174,4.2h.031a4.914,4.914,0,0,0,2.943-1.282,4.171,4.171,0,0,0-2.972-7.1Zm.014,6.134a2.007,2.007,0,0,1-1.419-.576,1.94,1.94,0,0,1-.6-1.39,1.981,1.981,0,0,1,1.986-2h.016a1.966,1.966,0,0,1,2,1.956,1.995,1.995,0,0,1-1.987,2.005Z" transform="translate(-45.376 -136.855)"/><path class="a" d="M80.091,64.639A1.09,1.09,0,0,0,80.1,64.5a7.269,7.269,0,0,0-1.794-4.776,6.531,6.531,0,0,0-.989-.911l3.8-.029a1.086,1.086,0,0,0,1.076-1.147,11.047,11.047,0,0,0-.551-2.675c-.642-1.881-2.622-3.093-5.051-3.093h-.054c-1.473,0-4.142.025-5.363.029l-2.442-4.435C67.027,44.455,64.55,41,60.479,41h-.053l-29.657.233c-3.343.025-6.292,2.367-8.307,6.583L19.98,52.294c-1.218.007-3.919.023-5.411.034-2.455.018-4.44,1.261-5.06,3.165A11.034,11.034,0,0,0,9,58.172a1.1,1.1,0,0,0,1.086,1.143h.009l3.731-.039a7.116,7.116,0,0,0-2.632,5.73,1.061,1.061,0,0,0,.01.135l1.842,13.74a4.072,4.072,0,0,0,3.4,3.907l.032,4.4a2.569,2.569,0,0,0,2.576,2.549h.02l4.523-.029a2.578,2.578,0,0,0,2.557-2.593l-.032-4.339,13.051-.1q-.065.872-.066,1.753a23.154,23.154,0,0,0,4.4,13.6,1.083,1.083,0,0,0,.167.23A23.277,23.277,0,1,0,79.581,68.732Zm-3.539-10.6h.037a3.01,3.01,0,0,1,3,1.622,8.732,8.732,0,0,1,.264.954l-6.046.048-1.433-2.6c1.332-.005,3.087-.024,4.182-.024Zm-52.175-5.19c.011-.02.021-.04.031-.06.949-1.994,3.039-5.357,6.376-5.382l29.657-.232h.038c2.332,0,4.237,1.616,6.356,5.35l5.019,9.1-5.31.043a7.262,7.262,0,0,0-14.415.109l-32.836.243Zm39.971,8.836-10.025.074a5.043,5.043,0,0,1,4.981-4.185h.039a5.028,5.028,0,0,1,3.571,1.434,4.969,4.969,0,0,1,1.434,2.676Zm-53.022-.564a8.685,8.685,0,0,1,.248-.954A3.021,3.021,0,0,1,14.584,54.5c1.1-.008,2.851-.018,4.186-.026l-1.436,2.59Zm12.256,30.42-4.523.033a.418.418,0,0,1-.286-.116.4.4,0,0,1-.12-.284l-.032-4.34,5.33-.039.032,4.34A.4.4,0,0,1,23.583,87.538ZM39.439,80.5l-22.317.166a1.912,1.912,0,0,1-1.34-.547,1.879,1.879,0,0,1-.567-1.332,1.085,1.085,0,0,0-.01-.136L13.365,64.922a4.434,4.434,0,0,1,3.9-4.714,1.119,1.119,0,0,0,.177.039h.008l56.205-.44c.008,0,.016-.025.024-.025h.037a3.93,3.93,0,0,1,2.963,1.375,5.167,5.167,0,0,1,1.247,3.286l-.3,2.387a23.286,23.286,0,0,0-33.477,3.13l-.018-2.448a1.067,1.067,0,0,0-1.086-1.055h-.008a1.065,1.065,0,0,0-1.079,1.072l.021,2.831a1.074,1.074,0,0,0,1.086,1.064h.008A23.186,23.186,0,0,0,39.44,80.5Zm6.471,17.1L59.055,84.462a1.086,1.086,0,0,0,.22-1.219,8.735,8.735,0,0,1,1.765-9.758,8.647,8.647,0,0,1,7.1-2.5l-2.449,2.432a1.087,1.087,0,0,0-.3.96l.933,5.28a1.086,1.086,0,0,0,.856.876l5.108,1.024a1.087,1.087,0,0,0,.982-.3l2.57-2.57a8.647,8.647,0,0,1-2.5,7.091,8.735,8.735,0,0,1-9.758,1.765,1.086,1.086,0,0,0-1.219.22L49.216,100.912a21.3,21.3,0,0,1-3.306-3.305ZM83.5,84.432A21.1,21.1,0,0,1,51,102.2L63.384,89.817A10.873,10.873,0,0,0,77.5,76.182a1.086,1.086,0,0,0-1.8-.424l-3.556,3.556-3.811-.764-.705-3.99,3.45-3.426a1.088,1.088,0,0,0-.419-1.8A10.814,10.814,0,0,0,59.5,71.948a10.924,10.924,0,0,0-2.5,11.49L44.624,95.821A21.106,21.106,0,1,1,83.5,84.432Z"/><path class="a" d="M188.505,205H188.5a1.081,1.081,0,0,0-1.079,1.091l.021,2.821a1.066,1.066,0,0,0,1.086,1.054h.008a1.065,1.065,0,0,0,1.079-1.072l-.021-2.831A1.074,1.074,0,0,0,188.505,205Z" transform="translate(-150.729 -138.545)"/><path class="a" d="M154.55,205h-.008a1.1,1.1,0,0,0-1.079,1.111l.021,2.889a1.125,1.125,0,0,0,1.086,1.122h.008a1.115,1.115,0,0,0,1.079-1.13l-.021-2.879A1.116,1.116,0,0,0,154.55,205Z" transform="translate(-122.044 -138.545)"/></g></svg>